<svg width="738" height="738" viewBox="0 0 738 738" fill="none" xmlns="http://www.w3.org/2000/svg">
<g clip-path="url(#clip0_75_2)">
<path d="M599.442 422.622L615.918 413.426C635.318 443.556 672.179 454.022 702.564 435.697C734.082 416.669 746.886 372.628 731.485 336.346C715.189 298.09 674.239 282.339 640.542 301.133C628.812 307.687 619.529 317.552 613.142 329.189L582.161 259.199L477.786 251.908C460.207 250.638 445.045 265.652 443.94 285.416C442.836 305.146 456.207 322.167 473.817 323.404L541.42 328.153L551.299 350.491L527.392 391.823L594.458 543.409L654.45 546.953L599.442 422.622" fill="#E4B548"/>
<path d="M442.866 619.853L458.207 631.29C444.656 665.232 455.013 706.33 484.353 726.696C514.767 747.83 555.15 738.233 575.416 705.127C596.786 670.181 588.459 622.462 557.12 599.087C546.196 590.961 533.958 586.881 521.781 586.48L560.253 521.371L513.722 416.201C505.872 398.511 486.741 391.255 470.952 400.083C455.163 408.878 448.716 430.38 456.565 448.103L486.711 516.222L474.414 536.988L430.569 534.413L347.206 675.431L374.486 735.524L442.866 619.853" fill="white"/>
<path d="M212.418 566.248L211.284 586.881C178.333 590.66 151.829 621.291 150.784 659.982C149.68 700.144 177.258 734.621 212.925 737.764C250.592 741.075 283.215 709.106 285.573 666.971C286.378 652.291 283.424 638.346 277.633 626.274L347.087 631.156L404.93 533.31C414.69 516.824 410.691 494.586 396.006 483.651C381.321 472.716 361.503 477.197 351.773 493.683L314.315 557.052L292.139 555.514L272.201 511.573L121.743 501.006L89.0009 557.587L212.418 566.248" fill="#E4B548"/>
<path d="M138.577 315.378L122.071 324.575C102.701 294.445 65.8098 283.978 35.4257 302.303C3.9074 321.331 -8.89691 365.372 6.53393 401.621C22.8005 439.877 63.7803 455.661 97.4476 436.867C109.177 430.313 118.46 420.448 124.847 408.777L155.828 478.768L260.233 486.092C277.812 487.329 292.975 472.314 294.049 452.584C295.153 432.821 281.782 415.8 264.202 414.596L196.599 409.848L186.72 387.476L210.627 346.144L143.531 194.592L83.5389 191.047L138.577 315.378" fill="white"/>
<path d="M295.153 118.112L279.812 106.676C293.363 72.767 282.976 31.6687 253.666 11.3036C223.222 -9.83078 182.84 -0.266884 162.603 32.8726C141.233 67.8178 149.53 115.537 180.899 138.879C191.794 147.005 204.061 151.118 216.238 151.486L177.736 216.628L224.297 321.764C232.117 339.488 251.278 346.711 267.068 337.916C282.856 329.121 289.274 307.619 281.454 289.896L251.308 221.777L263.575 200.978L307.421 203.586L390.783 62.5677L363.533 2.44182L295.153 118.112" fill="#E4B548"/>
<path d="M525.571 171.752L526.735 151.119C559.686 147.34 586.19 116.709 587.235 77.9849C588.31 37.8564 560.731 3.37921 525.064 0.235878C487.427 -3.07474 454.775 28.8609 452.417 71.0293C451.611 85.7096 454.595 99.6542 460.386 111.693L390.902 106.844L333.059 204.657C323.329 221.143 327.328 243.381 342.013 254.316C356.698 265.285 376.486 260.77 386.246 244.284L423.704 180.915L445.88 182.486L465.818 226.427L616.246 236.961L648.988 180.413L525.571 171.752Z" fill="white"/>
</g>
<defs>
<clipPath id="clip0_75_2">
<rect width="738" height="738" fill="white"/>
</clipPath>
</defs>
</svg>
