<svg width="387" height="293" viewBox="0 0 387 293" fill="none" xmlns="http://www.w3.org/2000/svg">
<g clip-path="url(#clip0_85_22)">
<mask id="mask0_85_22" style="mask-type:luminance" maskUnits="userSpaceOnUse" x="99" y="0" width="200" height="200">
<path d="M299 0H99V200H299V0Z" fill="white"/>
</mask>
<g mask="url(#mask0_85_22)">
<path d="M261.45 114.532L265.915 112.04C271.173 120.205 281.162 123.041 289.397 118.075C297.938 112.918 301.408 100.983 297.234 91.1507C292.818 80.7832 281.721 76.5146 272.589 81.6079C269.41 83.384 266.894 86.0575 265.163 89.2111L256.767 70.2436L228.481 68.2678C223.717 67.9236 219.608 71.9924 219.309 77.3485C219.01 82.6954 222.633 87.3081 227.406 87.6434L245.726 88.9304L248.404 94.984L241.925 106.185L260.1 147.265L276.358 148.226L261.45 114.532Z" fill="#E4B548"/>
<path d="M219.018 167.982L223.175 171.081C219.503 180.28 222.31 191.417 230.261 196.937C238.503 202.664 249.447 200.063 254.939 191.091C260.731 181.621 258.474 168.689 249.981 162.354C247.021 160.152 243.704 159.046 240.404 158.938L250.83 141.293L238.22 112.792C236.093 107.998 230.908 106.031 226.629 108.424C222.35 110.807 220.603 116.634 222.73 121.437L230.9 139.898L227.567 145.525L215.685 144.827L193.094 183.044L200.487 199.329L219.018 167.982Z" fill="#EEEEEE"/>
<path d="M156.566 153.455L156.259 159.046C147.329 160.07 140.146 168.372 139.863 178.857C139.564 189.741 147.037 199.084 156.703 199.936C166.911 200.833 175.752 192.17 176.391 180.751C176.609 176.773 175.809 172.993 174.239 169.722L193.062 171.045L208.737 144.528C211.382 140.061 210.298 134.034 206.319 131.071C202.339 128.107 196.968 129.322 194.331 133.789L184.18 150.963L178.17 150.546L172.767 138.638L131.993 135.774L123.119 151.108L156.566 153.455Z" fill="#E4B548"/>
<path d="M136.555 85.4683L132.082 87.9607C126.832 79.7954 116.835 76.9588 108.6 81.9249C100.059 87.0816 96.5889 99.0168 100.771 108.84C105.179 119.208 116.285 123.485 125.409 118.392C128.587 116.616 131.103 113.943 132.834 110.78L141.23 129.747L169.524 131.732C174.288 132.067 178.397 127.998 178.688 122.652C178.987 117.296 175.364 112.683 170.599 112.357L152.279 111.07L149.602 105.007L156.08 93.806L137.897 52.735L121.639 51.7743L136.555 85.4683Z" fill="#EEEEEE"/>
<path d="M178.987 32.0087L174.83 28.9095C178.502 19.7201 175.687 8.58232 167.744 3.06332C159.494 -2.66415 148.55 -0.0723118 143.066 8.90858C137.275 18.3788 139.523 31.3109 148.024 37.6366C150.977 39.8388 154.301 40.9534 157.601 41.0531L147.167 58.7068L159.785 87.1989C161.904 92.0022 167.097 93.9596 171.376 91.5762C175.655 89.1927 177.394 83.3656 175.275 78.5626L167.105 60.1022L170.43 54.4656L182.312 55.1724L204.903 16.956L197.518 0.661754L178.987 32.0087Z" fill="#E4B548"/>
<path d="M241.431 46.5453L241.747 40.9537C250.676 39.9295 257.859 31.6285 258.142 21.1341C258.434 10.2592 250.96 0.915775 241.294 0.0639237C231.094 -0.833263 222.245 7.82138 221.606 19.2491C221.388 23.2275 222.196 27.0066 223.766 30.2691L204.936 28.955L189.26 55.4626C186.623 59.9304 187.707 65.9569 191.686 68.9203C195.666 71.893 201.029 70.6694 203.674 66.2016L213.825 49.0285L219.835 49.4542L225.238 61.3623L266.004 64.2171L274.877 48.8924L241.431 46.5453Z" fill="#EEEEEE"/>
</g>
</g>
<path d="M11.8438 213.5V259H4.25V213.5H11.8438ZM26.5938 233.344V239.719H10.0938V233.344H26.5938ZM28.7188 213.5V219.875H10.0938V213.5H28.7188ZM50.2812 251.031V225.188H57.5625V259H50.6875L50.2812 251.031ZM51.3125 243.969L53.625 243.906C53.625 246.177 53.4167 248.271 53 250.188C52.5833 252.104 51.9375 253.771 51.0625 255.188C50.2083 256.583 49.0938 257.677 47.7188 258.469C46.3646 259.24 44.7396 259.625 42.8438 259.625C41.4479 259.625 40.1667 259.385 39 258.906C37.8542 258.427 36.8646 257.688 36.0312 256.688C35.2188 255.688 34.5833 254.385 34.125 252.781C33.6667 251.177 33.4375 249.26 33.4375 247.031V225.188H40.7188V247.094C40.7188 248.302 40.8229 249.312 41.0312 250.125C41.2396 250.917 41.5312 251.562 41.9062 252.062C42.2812 252.542 42.6979 252.885 43.1562 253.094C43.6354 253.281 44.1458 253.375 44.6875 253.375C46.3333 253.375 47.6354 252.969 48.5938 252.156C49.5729 251.323 50.2708 250.198 50.6875 248.781C51.1042 247.365 51.3125 245.76 51.3125 243.969ZM78.5 225.188V230.812H61.9062V225.188H78.5ZM66.4375 216.906H73.6875V249.562C73.6875 250.604 73.8021 251.396 74.0312 251.938C74.2604 252.479 74.5833 252.844 75 253.031C75.4167 253.219 75.9062 253.312 76.4688 253.312C76.8854 253.312 77.2917 253.281 77.6875 253.219C78.1042 253.135 78.4062 253.062 78.5938 253V258.875C78.0521 259.083 77.4271 259.26 76.7188 259.406C76.0104 259.552 75.1562 259.625 74.1562 259.625C72.6771 259.625 71.3542 259.323 70.1875 258.719C69.0208 258.094 68.1042 257.083 67.4375 255.688C66.7708 254.271 66.4375 252.396 66.4375 250.062V216.906ZM100.844 251.031V225.188H108.125V259H101.25L100.844 251.031ZM101.875 243.969L104.188 243.906C104.188 246.177 103.979 248.271 103.562 250.188C103.146 252.104 102.5 253.771 101.625 255.188C100.771 256.583 99.6562 257.677 98.2812 258.469C96.9271 259.24 95.3021 259.625 93.4062 259.625C92.0104 259.625 90.7292 259.385 89.5625 258.906C88.4167 258.427 87.4271 257.688 86.5938 256.688C85.7812 255.688 85.1458 254.385 84.6875 252.781C84.2292 251.177 84 249.26 84 247.031V225.188H91.2812V247.094C91.2812 248.302 91.3854 249.312 91.5938 250.125C91.8021 250.917 92.0938 251.562 92.4688 252.062C92.8438 252.542 93.2604 252.885 93.7188 253.094C94.1979 253.281 94.7083 253.375 95.25 253.375C96.8958 253.375 98.1979 252.969 99.1562 252.156C100.135 251.323 100.833 250.198 101.25 248.781C101.667 247.365 101.875 245.76 101.875 243.969ZM122.688 231.719V259H115.406V225.188H122.344L122.688 231.719ZM130.844 224.969L130.812 232.156C130.396 232.052 129.948 231.99 129.469 231.969C129.01 231.927 128.552 231.906 128.094 231.906C127.094 231.906 126.229 232.083 125.5 232.438C124.771 232.792 124.156 233.302 123.656 233.969C123.156 234.635 122.76 235.438 122.469 236.375C122.198 237.312 122.031 238.375 121.969 239.562L120.406 239.625C120.406 237.5 120.573 235.531 120.906 233.719C121.24 231.885 121.74 230.292 122.406 228.938C123.094 227.562 123.948 226.49 124.969 225.719C125.99 224.948 127.177 224.562 128.531 224.562C128.906 224.562 129.333 224.604 129.812 224.688C130.292 224.771 130.635 224.865 130.844 224.969ZM148.156 259.625C145.969 259.625 144.021 259.302 142.312 258.656C140.604 257.99 139.156 257.01 137.969 255.719C136.781 254.406 135.875 252.802 135.25 250.906C134.625 248.99 134.312 246.771 134.312 244.25V241C134.312 238.146 134.635 235.688 135.281 233.625C135.948 231.542 136.865 229.833 138.031 228.5C139.198 227.167 140.573 226.177 142.156 225.531C143.76 224.885 145.5 224.562 147.375 224.562C149.5 224.562 151.344 224.906 152.906 225.594C154.469 226.281 155.75 227.312 156.75 228.688C157.771 230.062 158.521 231.76 159 233.781C159.5 235.802 159.75 238.125 159.75 240.75V244.406H137.812V238.906H152.562V238.125C152.521 236.583 152.333 235.26 152 234.156C151.667 233.031 151.125 232.177 150.375 231.594C149.646 230.99 148.635 230.688 147.344 230.688C146.406 230.688 145.573 230.865 144.844 231.219C144.115 231.573 143.51 232.146 143.031 232.938C142.573 233.729 142.219 234.792 141.969 236.125C141.719 237.438 141.594 239.062 141.594 241V244.25C141.594 245.938 141.74 247.365 142.031 248.531C142.344 249.698 142.802 250.656 143.406 251.406C144.01 252.135 144.74 252.677 145.594 253.031C146.469 253.365 147.479 253.531 148.625 253.531C150.312 253.531 151.76 253.219 152.969 252.594C154.198 251.948 155.26 251.115 156.156 250.094L159.375 254.562C158.771 255.375 157.958 256.177 156.938 256.969C155.917 257.74 154.677 258.375 153.219 258.875C151.781 259.375 150.094 259.625 148.156 259.625ZM203.125 244.156H210.688C210.542 247.448 209.875 250.25 208.688 252.562C207.5 254.854 205.792 256.604 203.562 257.812C201.354 259.021 198.656 259.625 195.469 259.625C193.052 259.625 190.885 259.188 188.969 258.312C187.073 257.438 185.458 256.177 184.125 254.531C182.792 252.865 181.771 250.833 181.062 248.438C180.375 246.042 180.031 243.323 180.031 240.281V232.219C180.031 229.177 180.385 226.458 181.094 224.062C181.823 221.667 182.865 219.635 184.219 217.969C185.573 216.302 187.219 215.042 189.156 214.188C191.115 213.312 193.323 212.875 195.781 212.875C198.927 212.875 201.573 213.479 203.719 214.688C205.865 215.896 207.521 217.667 208.688 220C209.854 222.333 210.531 225.177 210.719 228.531H203.156C203.052 226.26 202.74 224.448 202.219 223.094C201.719 221.719 200.948 220.729 199.906 220.125C198.885 219.521 197.51 219.219 195.781 219.219C194.344 219.219 193.104 219.49 192.062 220.031C191.042 220.573 190.198 221.385 189.531 222.469C188.885 223.531 188.396 224.875 188.062 226.5C187.75 228.104 187.594 229.99 187.594 232.156V240.281C187.594 242.365 187.729 244.208 188 245.812C188.271 247.417 188.708 248.781 189.312 249.906C189.917 251.01 190.719 251.854 191.719 252.438C192.719 253 193.969 253.281 195.469 253.281C197.26 253.281 198.688 253 199.75 252.438C200.833 251.875 201.635 250.927 202.156 249.594C202.677 248.26 203 246.448 203.125 244.156ZM215.719 243.469V240.75C215.719 238.125 216.042 235.802 216.688 233.781C217.333 231.76 218.25 230.073 219.438 228.719C220.646 227.344 222.062 226.312 223.688 225.625C225.312 224.917 227.104 224.562 229.062 224.562C231.062 224.562 232.875 224.917 234.5 225.625C236.146 226.312 237.562 227.344 238.75 228.719C239.958 230.073 240.885 231.76 241.531 233.781C242.177 235.802 242.5 238.125 242.5 240.75V243.469C242.5 246.094 242.177 248.417 241.531 250.438C240.885 252.458 239.958 254.156 238.75 255.531C237.562 256.885 236.156 257.906 234.531 258.594C232.906 259.281 231.104 259.625 229.125 259.625C227.167 259.625 225.365 259.281 223.719 258.594C222.094 257.906 220.677 256.885 219.469 255.531C218.26 254.156 217.333 252.458 216.688 250.438C216.042 248.417 215.719 246.094 215.719 243.469ZM223 240.75V243.469C223 245.156 223.146 246.635 223.438 247.906C223.729 249.156 224.146 250.198 224.688 251.031C225.229 251.865 225.875 252.49 226.625 252.906C227.375 253.323 228.208 253.531 229.125 253.531C230.146 253.531 231.031 253.323 231.781 252.906C232.552 252.49 233.188 251.865 233.688 251.031C234.208 250.198 234.594 249.156 234.844 247.906C235.094 246.635 235.219 245.156 235.219 243.469V240.75C235.219 239.083 235.073 237.625 234.781 236.375C234.49 235.104 234.073 234.052 233.531 233.219C232.99 232.365 232.333 231.729 231.562 231.312C230.812 230.896 229.979 230.688 229.062 230.688C228.167 230.688 227.344 230.896 226.594 231.312C225.865 231.729 225.229 232.365 224.688 233.219C224.146 234.052 223.729 235.104 223.438 236.375C223.146 237.625 223 239.083 223 240.75ZM255.969 232.406V259H248.688V225.188H255.531L255.969 232.406ZM254.656 240.875H252.344C252.323 238.438 252.583 236.219 253.125 234.219C253.667 232.219 254.438 230.5 255.438 229.062C256.458 227.625 257.667 226.521 259.062 225.75C260.479 224.958 262.052 224.562 263.781 224.562C265.115 224.562 266.333 224.792 267.438 225.25C268.562 225.688 269.521 226.406 270.312 227.406C271.104 228.406 271.708 229.708 272.125 231.312C272.562 232.917 272.781 234.875 272.781 237.188V259H265.5V237.125C265.5 235.542 265.323 234.292 264.969 233.375C264.635 232.438 264.135 231.771 263.469 231.375C262.802 230.958 261.958 230.75 260.938 230.75C260 230.75 259.135 231.021 258.344 231.562C257.573 232.083 256.906 232.812 256.344 233.75C255.802 234.667 255.385 235.74 255.094 236.969C254.802 238.177 254.656 239.479 254.656 240.875ZM287.281 232.406V259H280V225.188H286.844L287.281 232.406ZM285.969 240.875H283.656C283.635 238.438 283.896 236.219 284.438 234.219C284.979 232.219 285.75 230.5 286.75 229.062C287.771 227.625 288.979 226.521 290.375 225.75C291.792 224.958 293.365 224.562 295.094 224.562C296.427 224.562 297.646 224.792 298.75 225.25C299.875 225.688 300.833 226.406 301.625 227.406C302.417 228.406 303.021 229.708 303.438 231.312C303.875 232.917 304.094 234.875 304.094 237.188V259H296.812V237.125C296.812 235.542 296.635 234.292 296.281 233.375C295.948 232.438 295.448 231.771 294.781 231.375C294.115 230.958 293.271 230.75 292.25 230.75C291.312 230.75 290.448 231.021 289.656 231.562C288.885 232.083 288.219 232.812 287.656 233.75C287.115 234.667 286.698 235.74 286.406 236.969C286.115 238.177 285.969 239.479 285.969 240.875ZM324.344 259.625C322.156 259.625 320.208 259.302 318.5 258.656C316.792 257.99 315.344 257.01 314.156 255.719C312.969 254.406 312.062 252.802 311.438 250.906C310.812 248.99 310.5 246.771 310.5 244.25V241C310.5 238.146 310.823 235.688 311.469 233.625C312.135 231.542 313.052 229.833 314.219 228.5C315.385 227.167 316.76 226.177 318.344 225.531C319.948 224.885 321.688 224.562 323.562 224.562C325.688 224.562 327.531 224.906 329.094 225.594C330.656 226.281 331.938 227.312 332.938 228.688C333.958 230.062 334.708 231.76 335.188 233.781C335.688 235.802 335.938 238.125 335.938 240.75V244.406H314V238.906H328.75V238.125C328.708 236.583 328.521 235.26 328.188 234.156C327.854 233.031 327.312 232.177 326.562 231.594C325.833 230.99 324.823 230.688 323.531 230.688C322.594 230.688 321.76 230.865 321.031 231.219C320.302 231.573 319.698 232.146 319.219 232.938C318.76 233.729 318.406 234.792 318.156 236.125C317.906 237.438 317.781 239.062 317.781 241V244.25C317.781 245.938 317.927 247.365 318.219 248.531C318.531 249.698 318.99 250.656 319.594 251.406C320.198 252.135 320.927 252.677 321.781 253.031C322.656 253.365 323.667 253.531 324.812 253.531C326.5 253.531 327.948 253.219 329.156 252.594C330.385 251.948 331.448 251.115 332.344 250.094L335.562 254.562C334.958 255.375 334.146 256.177 333.125 256.969C332.104 257.74 330.865 258.375 329.406 258.875C327.969 259.375 326.281 259.625 324.344 259.625ZM353.781 253.531C354.719 253.531 355.552 253.333 356.281 252.938C357.031 252.542 357.625 251.927 358.062 251.094C358.5 250.24 358.74 249.135 358.781 247.781H365.625C365.583 250.177 365.031 252.271 363.969 254.062C362.906 255.833 361.49 257.208 359.719 258.188C357.969 259.146 356.021 259.625 353.875 259.625C351.646 259.625 349.698 259.271 348.031 258.562C346.385 257.833 345.021 256.781 343.938 255.406C342.854 254.031 342.042 252.365 341.5 250.406C340.979 248.427 340.719 246.167 340.719 243.625V240.562C340.719 238.042 340.979 235.792 341.5 233.812C342.042 231.833 342.854 230.156 343.938 228.781C345.021 227.406 346.385 226.365 348.031 225.656C349.677 224.927 351.615 224.562 353.844 224.562C356.219 224.562 358.271 225.062 360 226.062C361.75 227.042 363.115 228.479 364.094 230.375C365.073 232.271 365.583 234.594 365.625 237.344H358.781C358.74 235.885 358.521 234.667 358.125 233.688C357.729 232.688 357.167 231.938 356.438 231.438C355.729 230.938 354.833 230.688 353.75 230.688C352.562 230.688 351.583 230.917 350.812 231.375C350.062 231.812 349.479 232.458 349.062 233.312C348.667 234.167 348.385 235.208 348.219 236.438C348.073 237.646 348 239.021 348 240.562V243.625C348 245.208 348.073 246.615 348.219 247.844C348.365 249.052 348.635 250.083 349.031 250.938C349.448 251.792 350.042 252.438 350.812 252.875C351.583 253.312 352.573 253.531 353.781 253.531ZM384.938 225.188V230.812H368.344V225.188H384.938ZM372.875 216.906H380.125V249.562C380.125 250.604 380.24 251.396 380.469 251.938C380.698 252.479 381.021 252.844 381.438 253.031C381.854 253.219 382.344 253.312 382.906 253.312C383.323 253.312 383.729 253.281 384.125 253.219C384.542 253.135 384.844 253.062 385.031 253V258.875C384.49 259.083 383.865 259.26 383.156 259.406C382.448 259.552 381.594 259.625 380.594 259.625C379.115 259.625 377.792 259.323 376.625 258.719C375.458 258.094 374.542 257.083 373.875 255.688C373.208 254.271 372.875 252.396 372.875 250.062V216.906Z" fill="#E4B548"/>
<path d="M115.267 286.664L116.973 278.336H118.028L117.984 280.423L116.138 289H115.032L115.267 286.664ZM114.183 278.336L115.538 286.605L115.596 289H114.432L112.417 278.336H114.183ZM119.881 286.576L121.221 278.336H122.979L120.972 289H119.808L119.881 286.576ZM118.453 278.336L120.145 286.686L120.364 289H119.258L117.457 280.416L117.413 278.336H118.453ZM130.171 282.774V284.269H125.682V282.774H130.171ZM126.099 278.336V289H124.319V278.336H126.099ZM131.563 278.336V289H129.791V278.336H131.563ZM139.517 287.513V289H134.888V287.513H139.517ZM135.357 278.336V289H133.577V278.336H135.357ZM138.895 282.774V284.239H134.888V282.774H138.895ZM139.473 278.336V279.83H134.888V278.336H139.473ZM140.997 278.336H144.219C144.922 278.336 145.518 278.458 146.006 278.702C146.495 278.946 146.866 279.308 147.12 279.786C147.378 280.26 147.508 280.848 147.508 281.551C147.508 282.083 147.427 282.552 147.266 282.958C147.11 283.363 146.883 283.705 146.585 283.983C146.287 284.256 145.928 284.469 145.508 284.62L144.988 284.906H142.264L142.256 283.412H144.175C144.522 283.412 144.81 283.336 145.04 283.185C145.269 283.033 145.44 282.823 145.552 282.555C145.669 282.286 145.728 281.981 145.728 281.639C145.728 281.273 145.677 280.956 145.574 280.687C145.472 280.414 145.311 280.204 145.091 280.057C144.871 279.906 144.581 279.83 144.219 279.83H142.776V289H140.997V278.336ZM145.962 289L143.934 284.21L145.787 284.203L147.867 288.905V289H145.962ZM155.074 287.513V289H150.445V287.513H155.074ZM150.914 278.336V289H149.134V278.336H150.914ZM154.451 282.774V284.239H150.445V282.774H154.451ZM155.03 278.336V279.83H150.445V278.336H155.03ZM161.138 278.336L163.013 283.39L164.888 278.336H166.851L163.907 285.074V289H162.112V285.074L159.168 278.336H161.138ZM175.047 282.796V284.613C175.047 285.365 174.959 286.024 174.783 286.59C174.612 287.157 174.363 287.63 174.036 288.011C173.714 288.387 173.323 288.67 172.864 288.861C172.41 289.051 171.902 289.146 171.341 289.146C170.784 289.146 170.276 289.051 169.817 288.861C169.363 288.67 168.97 288.387 168.638 288.011C168.311 287.63 168.057 287.157 167.876 286.59C167.701 286.024 167.613 285.365 167.613 284.613V282.796C167.613 282.035 167.701 281.368 167.876 280.797C168.052 280.221 168.304 279.74 168.631 279.354C168.963 278.968 169.356 278.678 169.81 278.482C170.269 278.287 170.774 278.189 171.326 278.189C171.888 278.189 172.396 278.287 172.85 278.482C173.309 278.678 173.702 278.968 174.029 279.354C174.356 279.74 174.607 280.221 174.783 280.797C174.959 281.368 175.047 282.035 175.047 282.796ZM173.282 284.613V282.782C173.282 282.24 173.238 281.776 173.15 281.39C173.067 281 172.942 280.682 172.776 280.438C172.61 280.189 172.405 280.006 172.161 279.889C171.922 279.767 171.644 279.706 171.326 279.706C171.019 279.706 170.743 279.767 170.499 279.889C170.259 280.006 170.054 280.189 169.883 280.438C169.717 280.682 169.59 281 169.502 281.39C169.419 281.776 169.378 282.24 169.378 282.782V284.613C169.378 285.145 169.422 285.604 169.51 285.99C169.598 286.371 169.725 286.683 169.891 286.927C170.062 287.167 170.269 287.345 170.513 287.462C170.757 287.579 171.033 287.638 171.341 287.638C171.653 287.638 171.932 287.579 172.176 287.462C172.42 287.345 172.623 287.167 172.784 286.927C172.95 286.683 173.074 286.371 173.157 285.99C173.24 285.604 173.282 285.145 173.282 284.613ZM181.741 278.336H183.521V285.741C183.521 286.556 183.367 287.213 183.06 287.711C182.757 288.209 182.347 288.573 181.829 288.802C181.316 289.032 180.745 289.146 180.115 289.146C179.461 289.146 178.877 289.032 178.365 288.802C177.852 288.573 177.449 288.209 177.156 287.711C176.863 287.213 176.717 286.556 176.717 285.741V278.336H178.489V285.741C178.489 286.249 178.553 286.642 178.68 286.92C178.812 287.198 178.997 287.391 179.236 287.499C179.48 287.606 179.773 287.66 180.115 287.66C180.457 287.66 180.748 287.606 180.987 287.499C181.231 287.391 181.417 287.198 181.543 286.92C181.675 286.642 181.741 286.249 181.741 285.741V278.336ZM185.367 278.336H188.589C189.292 278.336 189.888 278.458 190.376 278.702C190.865 278.946 191.236 279.308 191.49 279.786C191.749 280.26 191.878 280.848 191.878 281.551C191.878 282.083 191.797 282.552 191.636 282.958C191.48 283.363 191.253 283.705 190.955 283.983C190.657 284.256 190.298 284.469 189.878 284.62L189.358 284.906H186.634L186.626 283.412H188.545C188.892 283.412 189.18 283.336 189.41 283.185C189.639 283.033 189.81 282.823 189.922 282.555C190.04 282.286 190.098 281.981 190.098 281.639C190.098 281.273 190.047 280.956 189.944 280.687C189.842 280.414 189.681 280.204 189.461 280.057C189.241 279.906 188.951 279.83 188.589 279.83H187.146V289H185.367V278.336ZM190.333 289L188.304 284.21L190.157 284.203L192.237 288.905V289H190.333ZM201.546 286.246C201.546 286.026 201.521 285.831 201.473 285.66C201.429 285.484 201.343 285.326 201.216 285.184C201.089 285.042 200.909 284.903 200.674 284.767C200.445 284.63 200.147 284.491 199.781 284.349C199.361 284.188 198.968 284.012 198.602 283.822C198.24 283.626 197.92 283.407 197.642 283.163C197.369 282.914 197.154 282.623 196.998 282.291C196.841 281.959 196.763 281.573 196.763 281.134C196.763 280.699 196.839 280.304 196.99 279.947C197.146 279.586 197.366 279.276 197.649 279.017C197.938 278.753 198.279 278.551 198.675 278.409C199.07 278.263 199.507 278.189 199.986 278.189C200.674 278.189 201.263 278.336 201.751 278.629C202.244 278.922 202.62 279.315 202.879 279.808C203.143 280.301 203.274 280.848 203.274 281.449H201.502C201.502 281.102 201.448 280.794 201.341 280.526C201.233 280.257 201.067 280.047 200.843 279.896C200.618 279.745 200.328 279.669 199.971 279.669C199.644 279.669 199.373 279.732 199.158 279.859C198.948 279.986 198.792 280.16 198.689 280.379C198.592 280.599 198.543 280.851 198.543 281.134C198.543 281.329 198.584 281.507 198.667 281.668C198.75 281.825 198.87 281.969 199.026 282.101C199.183 282.232 199.373 282.357 199.598 282.474C199.822 282.591 200.081 282.704 200.374 282.811C200.872 282.992 201.307 283.192 201.678 283.412C202.049 283.631 202.354 283.878 202.593 284.151C202.837 284.42 203.018 284.725 203.135 285.067C203.257 285.409 203.318 285.797 203.318 286.231C203.318 286.671 203.243 287.071 203.091 287.433C202.945 287.789 202.73 288.094 202.447 288.348C202.164 288.602 201.822 288.8 201.421 288.941C201.021 289.078 200.572 289.146 200.074 289.146C199.615 289.146 199.173 289.078 198.748 288.941C198.328 288.805 197.952 288.597 197.62 288.319C197.288 288.036 197.024 287.682 196.829 287.257C196.639 286.832 196.543 286.334 196.543 285.763H198.323C198.323 286.104 198.365 286.397 198.448 286.642C198.531 286.881 198.65 287.079 198.807 287.235C198.968 287.386 199.156 287.499 199.371 287.572C199.59 287.64 199.834 287.674 200.103 287.674C200.435 287.674 200.706 287.616 200.916 287.499C201.131 287.376 201.29 287.208 201.392 286.993C201.495 286.778 201.546 286.529 201.546 286.246ZM208.79 278.336V289H207.017V278.336H208.79ZM211.507 278.336V279.83H204.329V278.336H211.507ZM219.944 282.796V284.613C219.944 285.365 219.856 286.024 219.681 286.59C219.51 287.157 219.261 287.63 218.934 288.011C218.611 288.387 218.221 288.67 217.762 288.861C217.308 289.051 216.8 289.146 216.238 289.146C215.682 289.146 215.174 289.051 214.715 288.861C214.261 288.67 213.868 288.387 213.536 288.011C213.208 287.63 212.955 287.157 212.774 286.59C212.598 286.024 212.51 285.365 212.51 284.613V282.796C212.51 282.035 212.598 281.368 212.774 280.797C212.95 280.221 213.201 279.74 213.528 279.354C213.86 278.968 214.253 278.678 214.708 278.482C215.167 278.287 215.672 278.189 216.224 278.189C216.785 278.189 217.293 278.287 217.747 278.482C218.206 278.678 218.599 278.968 218.926 279.354C219.253 279.74 219.505 280.221 219.681 280.797C219.856 281.368 219.944 282.035 219.944 282.796ZM218.179 284.613V282.782C218.179 282.24 218.135 281.776 218.047 281.39C217.964 281 217.84 280.682 217.674 280.438C217.508 280.189 217.303 280.006 217.059 279.889C216.819 279.767 216.541 279.706 216.224 279.706C215.916 279.706 215.64 279.767 215.396 279.889C215.157 280.006 214.952 280.189 214.781 280.438C214.615 280.682 214.488 281 214.4 281.39C214.317 281.776 214.275 282.24 214.275 282.782V284.613C214.275 285.145 214.319 285.604 214.407 285.99C214.495 286.371 214.622 286.683 214.788 286.927C214.959 287.167 215.167 287.345 215.411 287.462C215.655 287.579 215.931 287.638 216.238 287.638C216.551 287.638 216.829 287.579 217.073 287.462C217.317 287.345 217.52 287.167 217.681 286.927C217.847 286.683 217.972 286.371 218.055 285.99C218.138 285.604 218.179 285.145 218.179 284.613ZM221.753 278.336H224.976C225.679 278.336 226.275 278.458 226.763 278.702C227.251 278.946 227.623 279.308 227.876 279.786C228.135 280.26 228.265 280.848 228.265 281.551C228.265 282.083 228.184 282.552 228.023 282.958C227.867 283.363 227.64 283.705 227.342 283.983C227.044 284.256 226.685 284.469 226.265 284.62L225.745 284.906H223.021L223.013 283.412H224.932C225.279 283.412 225.567 283.336 225.796 283.185C226.026 283.033 226.197 282.823 226.309 282.555C226.426 282.286 226.485 281.981 226.485 281.639C226.485 281.273 226.434 280.956 226.331 280.687C226.229 280.414 226.067 280.204 225.848 280.057C225.628 279.906 225.337 279.83 224.976 279.83H223.533V289H221.753V278.336ZM226.719 289L224.69 284.21L226.543 284.203L228.624 288.905V289H226.719ZM230.674 278.336L232.549 283.39L234.424 278.336H236.387L233.443 285.074V289H231.648V285.074L228.704 278.336H230.674ZM244.451 284.195H242.276L242.269 282.833H244.195C244.493 282.833 244.747 282.774 244.957 282.657C245.167 282.54 245.325 282.369 245.433 282.145C245.545 281.92 245.601 281.649 245.601 281.332C245.601 280.98 245.552 280.694 245.455 280.475C245.357 280.25 245.203 280.086 244.993 279.984C244.788 279.881 244.524 279.83 244.202 279.83H242.803V289H241.023V278.336H244.202C244.7 278.336 245.145 278.395 245.535 278.512C245.931 278.624 246.265 278.797 246.539 279.032C246.812 279.266 247.02 279.566 247.161 279.933C247.308 280.294 247.381 280.724 247.381 281.222C247.381 281.656 247.288 282.057 247.103 282.423C246.917 282.784 246.641 283.082 246.275 283.316C245.914 283.546 245.464 283.683 244.927 283.727L244.451 284.195ZM244.385 289H241.69L242.51 287.513H244.385C244.703 287.513 244.964 287.445 245.169 287.308C245.374 287.171 245.528 286.981 245.63 286.737C245.733 286.493 245.784 286.207 245.784 285.88C245.784 285.538 245.74 285.24 245.652 284.986C245.564 284.732 245.423 284.537 245.228 284.4C245.032 284.264 244.773 284.195 244.451 284.195H242.657L242.671 282.833H244.964L245.374 283.353C245.887 283.363 246.304 283.49 246.626 283.734C246.949 283.973 247.186 284.283 247.337 284.664C247.488 285.045 247.564 285.453 247.564 285.887C247.564 286.566 247.437 287.137 247.183 287.601C246.929 288.06 246.565 288.409 246.092 288.648C245.623 288.883 245.054 289 244.385 289ZM255.284 287.513V289H250.655V287.513H255.284ZM251.124 278.336V289H249.344V278.336H251.124ZM254.661 282.774V284.239H250.655V282.774H254.661ZM255.24 278.336V279.83H250.655V278.336H255.24ZM263.736 283.529V287.733C263.604 287.894 263.404 288.087 263.135 288.312C262.872 288.531 262.515 288.727 262.066 288.897C261.622 289.063 261.06 289.146 260.381 289.146C259.81 289.146 259.288 289.054 258.814 288.868C258.345 288.683 257.942 288.402 257.605 288.026C257.269 287.65 257.01 287.181 256.829 286.62C256.648 286.053 256.558 285.384 256.558 284.613V282.716C256.558 281.954 256.639 281.29 256.8 280.724C256.966 280.157 257.208 279.686 257.525 279.31C257.842 278.929 258.228 278.648 258.682 278.468C259.136 278.282 259.659 278.189 260.25 278.189C260.997 278.189 261.619 278.321 262.117 278.585C262.62 278.844 263.003 279.229 263.267 279.742C263.536 280.25 263.692 280.87 263.736 281.603H262C261.961 281.153 261.875 280.79 261.744 280.511C261.617 280.228 261.434 280.018 261.194 279.881C260.955 279.745 260.647 279.676 260.271 279.676C259.93 279.676 259.637 279.735 259.393 279.852C259.148 279.969 258.948 280.152 258.792 280.401C258.636 280.646 258.521 280.958 258.448 281.339C258.375 281.72 258.338 282.174 258.338 282.701V284.613C258.338 285.15 258.384 285.611 258.477 285.997C258.57 286.383 258.704 286.7 258.88 286.949C259.061 287.193 259.283 287.374 259.546 287.491C259.81 287.604 260.11 287.66 260.447 287.66C260.779 287.66 261.043 287.625 261.238 287.557C261.434 287.489 261.585 287.413 261.692 287.33C261.805 287.242 261.895 287.174 261.963 287.125V284.928H260.242V283.529H263.736ZM267.427 278.336V289H265.647V278.336H267.427ZM276.714 278.336V289H274.971L271.207 281.617V289H269.485V278.336H271.207L275 285.77V278.336H276.714ZM283.313 286.246C283.313 286.026 283.289 285.831 283.24 285.66C283.196 285.484 283.111 285.326 282.984 285.184C282.857 285.042 282.676 284.903 282.442 284.767C282.212 284.63 281.915 284.491 281.548 284.349C281.128 284.188 280.735 284.012 280.369 283.822C280.008 283.626 279.688 283.407 279.41 283.163C279.136 282.914 278.921 282.623 278.765 282.291C278.609 281.959 278.531 281.573 278.531 281.134C278.531 280.699 278.606 280.304 278.758 279.947C278.914 279.586 279.134 279.276 279.417 279.017C279.705 278.753 280.047 278.551 280.442 278.409C280.838 278.263 281.275 278.189 281.753 278.189C282.442 278.189 283.03 278.336 283.519 278.629C284.012 278.922 284.388 279.315 284.646 279.808C284.91 280.301 285.042 280.848 285.042 281.449H283.27C283.27 281.102 283.216 280.794 283.108 280.526C283.001 280.257 282.835 280.047 282.61 279.896C282.386 279.745 282.095 279.669 281.739 279.669C281.412 279.669 281.141 279.732 280.926 279.859C280.716 279.986 280.56 280.16 280.457 280.379C280.359 280.599 280.311 280.851 280.311 281.134C280.311 281.329 280.352 281.507 280.435 281.668C280.518 281.825 280.638 281.969 280.794 282.101C280.95 282.232 281.141 282.357 281.365 282.474C281.59 282.591 281.849 282.704 282.142 282.811C282.64 282.992 283.074 283.192 283.445 283.412C283.816 283.631 284.122 283.878 284.361 284.151C284.605 284.42 284.786 284.725 284.903 285.067C285.025 285.409 285.086 285.797 285.086 286.231C285.086 286.671 285.01 287.071 284.859 287.433C284.712 287.789 284.498 288.094 284.214 288.348C283.931 288.602 283.589 288.8 283.189 288.941C282.789 289.078 282.339 289.146 281.841 289.146C281.382 289.146 280.94 289.078 280.516 288.941C280.096 288.805 279.72 288.597 279.388 288.319C279.056 288.036 278.792 287.682 278.597 287.257C278.406 286.832 278.311 286.334 278.311 285.763H280.091C280.091 286.104 280.132 286.397 280.215 286.642C280.298 286.881 280.418 287.079 280.574 287.235C280.735 287.386 280.923 287.499 281.138 287.572C281.358 287.64 281.602 287.674 281.871 287.674C282.203 287.674 282.474 287.616 282.684 287.499C282.898 287.376 283.057 287.208 283.16 286.993C283.262 286.778 283.313 286.529 283.313 286.246Z" fill="#EEEEEE"/>
<defs>
<clipPath id="clip0_85_22">
<rect width="200" height="200" fill="white" transform="translate(99)"/>
</clipPath>
</defs>
</svg>
